HIERARCHY
ROOT Pelvis
{
	OFFSET 0.000000 0.000000 0.000000
	CHANNELS 6 Xposition Yposition Zposition Xrotation Yrotation Zrotation
	JOINT LeftUpLeg_virtual
	{
		OFFSET 0.000000 0.000000 0.000000
		CHANNELS 3 Xrotation Yrotation Zrotation
		JOINT LeftUpLeg
		{
			OFFSET 18.735201 -5.666702 -4.541200
			CHANNELS 3 Xrotation Yrotation Zrotation
			JOINT LeftLeg
			{
				OFFSET -0.021200 -31.938179 0.493100
				CHANNELS 3 Xrotation Yrotation Zrotation
				JOINT LeftFoot
				{
					OFFSET 0.021200 -31.938179 -4.336299
					CHANNELS 3 Xrotation Yrotation Zrotation
					JOINT LeftToeBase
					{
						OFFSET 0.943001 -26.722000 15.023500
						CHANNELS 3 Xrotation Yrotation Zrotation
						End Site
						{
							OFFSET 0 0 0
						}
					}
				}
			}
		}
	}
	JOINT RightUpLeg_virtual
	{
		OFFSET 0.000000 0.000000 0.000000
		CHANNELS 3 Xrotation Yrotation Zrotation
		JOINT RightUpLeg
		{
			OFFSET -18.735201 -5.666702 -4.541200
			CHANNELS 3 Xrotation Yrotation Zrotation
			JOINT RightLeg
			{
				OFFSET 0.018946 -31.938133 0.493100
				CHANNELS 3 Xrotation Yrotation Zrotation
				JOINT RightFoot
				{
					OFFSET -0.018946 -31.938126 -4.336299
					CHANNELS 3 Xrotation Yrotation Zrotation
					JOINT RightToeBase
					{
						OFFSET -0.943001 -26.722004 15.023500
						CHANNELS 3 Xrotation Yrotation Zrotation
						End Site
						{
							OFFSET 0 0 0
						}
					}
				}
			}
		}
	}
	JOINT Hips_virtual
	{
		OFFSET 0.000000 0.000000 0.000000
		CHANNELS 3 Xrotation Yrotation Zrotation
		JOINT Hips
		{
			OFFSET -0.000000 -0.000000 -0.000000
			CHANNELS 3 Xrotation Yrotation Zrotation
			JOINT Spine
			{
				OFFSET 0.000000 10.199997 -0.299500
				CHANNELS 3 Xrotation Yrotation Zrotation
				JOINT Spine1
				{
					OFFSET 0.000000 11.900002 -1.516600
					CHANNELS 3 Xrotation Yrotation Zrotation
					JOINT Spine2
					{
						OFFSET 0.000000 13.600006 -2.842500
						CHANNELS 3 Xrotation Yrotation Zrotation
						JOINT Neck_virtual
						{
							OFFSET 0.000000 0.000000 0.000000
							CHANNELS 3 Xrotation Yrotation Zrotation
							JOINT Neck
							{
								OFFSET 0.000000 9.624100 -2.890100
								CHANNELS 3 Xrotation Yrotation Zrotation
								JOINT Head
								{
									OFFSET 0.000000 14.068802 -1.351900
									CHANNELS 3 Xrotation Yrotation Zrotation
									End Site
									{
										OFFSET 0 0 0
									}
								}
							}
						}
						JOINT LeftShoulder_virtual
						{
							OFFSET 0.000000 0.000000 0.000000
							CHANNELS 3 Xrotation Yrotation Zrotation
							JOINT LeftShoulder
							{
								OFFSET 15.263000 10.923401 -0.547700
								CHANNELS 3 Xrotation Yrotation Zrotation
								JOINT LeftArm
								{
									OFFSET 25.438599 -2.830597 -13.032500
									CHANNELS 3 Xrotation Yrotation Zrotation
									JOINT LeftForeArm
									{
										OFFSET 29.960503 0.000000 0.000000
										CHANNELS 3 Xrotation Yrotation Zrotation
										JOINT LeftHand
										{
											OFFSET 27.849251 0.000000 0.000000
											CHANNELS 3 Xrotation Yrotation Zrotation
											End Site
											{
												OFFSET 0 0 0
											}
										}
									}
								}
							}
						}
						JOINT RightShoulder_virtual
						{
							OFFSET 0.000000 0.000000 0.000000
							CHANNELS 3 Xrotation Yrotation Zrotation
							JOINT RightShoulder
							{
								OFFSET -15.263000 10.923401 -0.547700
								CHANNELS 3 Xrotation Yrotation Zrotation
								JOINT RightArm
								{
									OFFSET -25.438599 -2.830597 -13.032500
									CHANNELS 3 Xrotation Yrotation Zrotation
									JOINT RightForeArm
									{
										OFFSET -29.960503 0.000000 0.000000
										CHANNELS 3 Xrotation Yrotation Zrotation
										JOINT RightHand
										{
											OFFSET -27.849251 0.000000 0.000000
											CHANNELS 3 Xrotation Yrotation Zrotation
											End Site
											{
												OFFSET 0 0 0
											}
										}
									}
								}
							}
						}
					}
				}
			}
		}
	}
}
MOTION
Frames: 10
Frame Time: 0.03333333
-1.636924 85.243149 3.444057 0.000000 0.000000 0.000000 0.222630 -15.840076 -1.604461 -36.443369 13.682007 11.249530 53.731602 5.057716 13.580154 -15.592533 4.307218 -15.123065 0.000000 0.000000 0.000000 -0.557637 -15.058026 -1.923836 -32.021498 -20.137530 -11.807315 52.225952 -2.467664 -8.794056 -19.530728 -3.647500 10.557507 0.000000 0.000000 0.000000 0.148749 -15.024237 -1.454602 -0.407917 -1.966668 -1.409488 6.716986 0.937546 -0.221635 2.026917 0.450258 -0.486092 0.000000 0.000000 0.000000 1.459825 0.284456 -0.640315 -0.663582 0.204674 2.012185 0.000000 0.000000 0.000000 2.185611 0.627274 -0.652148 0.399076 -0.265246 16.868532 -50.313369 -55.813362 -54.119424 -0.214182 -46.036455 0.311385 0.000000 0.000000 0.000000 2.538648 0.652354 -0.654783 1.527473 -0.888734 -1.011707 -168.405540 85.422512 158.485756 2.364279 34.016313 -0.481123 0.000000 0.000000 0.000000 
-1.476423 85.225670 3.326729 0.000000 0.000000 0.000000 0.028612 -16.254885 -1.653299 -36.553349 14.125173 11.504784 53.999339 5.083290 13.359328 -15.123842 4.518243 -14.908974 0.000000 0.000000 0.000000 -0.661420 -15.352314 -1.997149 -32.328778 -20.008097 -12.070241 52.604218 -2.159024 -9.037431 -18.234660 -3.423809 10.686693 0.000000 0.000000 0.000000 0.019800 -15.230007 -1.437400 -0.612796 -1.698980 -1.405864 6.892928 1.120121 -0.035099 1.979315 0.496600 -0.497301 0.000000 0.000000 0.000000 1.499106 0.306362 -0.680753 -0.632984 0.227685 1.886997 0.000000 0.000000 0.000000 2.137082 0.660950 -0.608462 0.444028 -0.225370 16.956448 -50.257970 -55.960218 -53.881375 -0.263716 -45.255078 0.255968 0.000000 0.000000 0.000000 2.356080 0.702110 -0.602901 1.385744 -0.819475 -0.505497 -154.959616 84.979171 145.999351 2.487809 33.771440 -0.717318 0.000000 0.000000 0.000000 
-1.073089 85.178047 3.182781 0.000000 0.000000 0.000000 -0.078243 -17.002168 -1.639631 -36.737023 14.368978 11.598573 54.453543 5.305180 13.040789 -15.140586 5.068593 -14.487898 0.000000 0.000000 0.000000 -0.719887 -15.927475 -2.009013 -32.605933 -19.610735 -12.139556 52.822907 -1.851283 -9.568236 -17.867727 -3.462357 10.169889 0.000000 0.000000 0.000000 -0.119181 -15.696185 -1.384686 -0.817146 -1.473991 -1.392114 7.002892 1.355114 0.212354 1.994630 0.655249 -0.387717 0.000000 0.000000 0.000000 1.569922 0.460257 -0.634154 -0.568845 0.239640 1.698055 0.000000 0.000000 0.000000 2.184151 0.808238 -0.448203 0.497400 -0.551583 16.828222 -49.562424 -56.556575 -53.503771 -0.485281 -44.722371 0.030589 0.000000 0.000000 0.000000 2.219845 0.892491 -0.411558 1.148867 -1.079749 -0.225661 -140.941117 84.569094 132.819708 2.617413 33.698719 -0.940078 0.000000 0.000000 0.000000 
-0.511384 85.092735 2.977196 0.000000 0.000000 0.000000 -0.070833 -18.068432 -1.523167 -36.712526 14.508567 11.438146 54.732594 5.625825 12.631507 -15.737792 5.807368 -14.017520 0.000000 0.000000 0.000000 -0.643874 -16.768162 -1.934092 -32.945909 -19.248342 -12.202160 53.034855 -1.596229 -10.115058 -18.784815 -3.697085 9.447411 0.000000 0.000000 0.000000 -0.254734 -16.454066 -1.279824 -0.863376 -1.547793 -1.299108 7.017954 1.591665 0.515131 2.067182 0.886950 -0.119637 0.000000 0.000000 0.000000 1.684277 0.703853 -0.460872 -0.466273 0.231567 1.503268 0.000000 0.000000 0.000000 2.368232 1.052198 -0.167653 0.529306 -1.067163 16.539059 -48.656362 -57.188033 -53.345205 -0.819434 -44.673682 -0.207250 0.000000 0.000000 0.000000 2.216936 1.176418 -0.078084 0.903223 -1.543882 -0.313508 -130.362780 84.165477 122.736628 2.676161 33.328748 -1.091859 0.000000 0.000000 0.000000 
0.142450 84.963127 2.849422 0.000000 0.000000 0.000000 0.083933 -19.421279 -1.260069 -36.566336 14.757990 11.090777 54.887868 6.039164 12.092154 -16.552583 6.660716 -13.406092 0.000000 0.000000 0.000000 -0.524129 -17.988478 -1.767321 -33.765812 -19.125872 -12.640816 53.675953 -1.330998 -10.372796 -19.880995 -3.822211 9.185156 0.000000 0.000000 0.000000 -0.386058 -17.495470 -1.103155 -0.856228 -1.576148 -1.306317 6.975288 1.770355 0.890985 2.172393 1.122901 0.310101 0.000000 0.000000 0.000000 1.791122 0.966628 -0.141782 -0.315597 0.200688 1.368612 0.000000 0.000000 0.000000 2.662594 1.315342 0.219819 0.487542 -1.541914 16.149472 -48.024686 -57.345203 -53.791001 -1.231733 -45.401791 -0.353921 0.000000 0.000000 0.000000 2.354053 1.474268 0.407378 0.706908 -1.943071 -0.736923 -125.773945 83.882270 118.228143 2.646705 32.613559 -1.201854 0.000000 0.000000 0.000000 
0.849787 84.786316 2.822201 0.000000 0.000000 0.000000 0.286036 -20.835055 -0.866868 -36.491471 15.125958 10.672397 55.142183 6.518452 11.418922 -17.537919 7.558267 -12.502471 0.000000 0.000000 0.000000 -0.450490 -19.437557 -1.503699 -35.229040 -19.071995 -13.542369 54.717755 -1.018308 -10.394511 -20.147499 -3.692705 9.574388 0.000000 0.000000 0.000000 -0.392926 -18.687264 -0.819467 -0.757563 -1.309503 -1.436778 6.961447 1.804333 1.356102 2.305518 1.276186 0.858035 0.000000 0.000000 0.000000 1.932767 1.147368 0.308219 -0.113621 0.157782 1.361469 0.000000 0.000000 0.000000 3.009259 1.501580 0.681013 0.319426 -1.660386 15.906303 -47.593103 -56.815361 -54.580680 -1.678436 -47.036368 -0.373882 0.000000 0.000000 0.000000 2.624706 1.679555 0.978100 0.597007 -2.063609 -1.388295 -127.117375 83.731180 119.351245 2.567562 31.986958 -1.305271 0.000000 0.000000 0.000000 
1.570303 84.633728 2.823395 0.000000 0.000000 0.000000 0.545041 -22.064841 -0.444554 -36.432734 15.192574 10.175061 55.408649 6.786371 10.728716 -18.765170 8.214551 -11.585910 0.000000 0.000000 0.000000 -0.373447 -20.654839 -1.171303 -36.792358 -18.765485 -14.529173 55.563903 -0.675225 -10.487336 -19.599370 -3.324781 10.342301 0.000000 0.000000 0.000000 -0.279164 -19.743884 -0.490154 -0.852210 -0.916736 -1.471260 7.028003 1.609334 1.846723 2.429605 1.237412 1.415823 0.000000 0.000000 0.000000 2.119918 1.155676 0.811096 0.137293 0.120340 1.520282 0.000000 0.000000 0.000000 3.318180 1.504395 1.125065 -0.005846 -1.340177 16.144651 -47.041750 -55.655069 -55.335840 -2.119874 -49.051687 -0.287359 0.000000 0.000000 0.000000 2.943595 1.690997 1.507462 0.556019 -1.830333 -2.051150 -131.809715 83.705771 123.680164 2.461442 32.002677 -1.401413 0.000000 0.000000 0.000000 
2.221066 84.520729 2.845459 0.000000 0.000000 0.000000 0.794570 -22.699968 -0.150964 -36.353924 14.788265 9.706304 55.565471 6.622428 10.092834 -19.886451 8.379202 -11.055231 0.000000 0.000000 0.000000 -0.312203 -21.281280 -0.885389 -37.753423 -18.231148 -15.220602 55.769557 -0.454688 -10.724056 -19.127851 -2.977907 11.118775 0.000000 0.000000 0.000000 -0.091434 -20.310659 -0.274219 -1.110632 -0.485578 -1.430369 7.151932 1.153962 2.257207 2.518896 0.939544 1.842646 0.000000 0.000000 0.000000 2.368410 0.900059 1.224437 0.433294 0.099838 1.835657 0.000000 0.000000 0.000000 3.474785 1.226852 1.445012 -0.496980 -0.697046 17.102705 -46.776557 -54.279869 -55.930845 -2.458050 -50.670055 -0.157204 0.000000 0.000000 0.000000 3.211001 1.412234 1.861845 0.535921 -1.437220 -2.429231 -134.327664 83.836331 125.976774 2.460326 33.039244 -1.561375 0.000000 0.000000 0.000000 
2.664784 84.417625 2.834808 0.000000 0.000000 0.000000 0.854654 -22.220412 -0.298444 -36.450032 14.090424 9.605921 55.587457 6.135404 9.439419 -20.486020 8.131953 -10.948256 0.000000 0.000000 0.000000 -0.336811 -20.804657 -0.945689 -37.777677 -17.936056 -15.378868 55.389750 -0.557399 -10.932863 -19.286637 -2.892026 11.676965 0.000000 0.000000 0.000000 0.039298 -20.117559 -0.434723 -1.317217 -0.120415 -1.304903 7.269913 0.451199 2.463610 2.558872 0.362752 1.982265 0.000000 0.000000 0.000000 2.713559 0.355327 1.385200 0.739033 0.101065 2.254963 0.000000 0.000000 0.000000 3.437716 0.662894 1.508155 -1.097962 -0.000815 18.823059 -47.448003 -53.423663 -56.732962 -2.553811 -50.997771 0.009089 0.000000 0.000000 0.000000 3.374494 0.825470 1.892039 0.499645 -1.206036 -2.356368 -131.037616 83.953147 122.926753 2.591417 34.582563 -1.795107 0.000000 0.000000 0.000000 
2.837601 84.332199 2.909645 0.000000 0.000000 0.000000 0.681510 -20.466467 -1.172003 -37.037937 13.131112 10.172496 55.835717 5.536149 8.774502 -20.569243 7.744267 -10.915109 0.000000 0.000000 0.000000 -0.541442 -19.030382 -1.674306 -36.705877 -18.460671 -14.943322 54.489118 -1.059497 -10.874725 -19.836223 -3.113501 11.897064 0.000000 0.000000 0.000000 -0.049606 -18.953152 -1.272158 -1.498257 0.082363 -1.074750 7.298972 -0.428088 2.301019 2.520415 -0.411632 1.741217 0.000000 0.000000 0.000000 3.017033 -0.377254 1.185939 0.993515 0.132024 2.668879 0.000000 0.000000 0.000000 3.221145 -0.120895 1.212415 -1.688780 0.328483 21.021649 -49.660676 -53.592301 -58.458872 -2.372478 -49.649601 0.162266 0.000000 0.000000 0.000000 3.401097 0.018851 1.541124 0.431091 -1.335041 -1.929020 -121.883756 83.812964 114.746454 2.834193 35.595299 -2.052117 0.000000 0.000000 0.000000 
